<?xml version="1.0" standalone="no"?>
<!DOCTYPE svg PUBLIC "-//W3C//DTD SVG 20010904//EN"
 "http://www.w3.org/TR/2001/REC-SVG-20010904/DTD/svg10.dtd">
<svg version="1.0" xmlns="http://www.w3.org/2000/svg"
 width="512.000000pt" height="512.000000pt" viewBox="0 0 512.000000 512.000000"
 preserveAspectRatio="xMidYMid meet">

<g transform="translate(0.000000,512.000000) scale(0.100000,-0.100000)"
fill="#000000" stroke="none">
<path d="M3433 4940 c-34 -14 -63 -68 -63 -120 -1 -151 -110 -329 -245 -402
-28 -14 -323 -114 -656 -222 -647 -209 -725 -238 -868 -319 -354 -203 -624
-520 -764 -897 -84 -226 -107 -381 -107 -721 0 -279 12 -370 64 -501 l27 -66
-16 -123 c-49 -394 -36 -842 36 -1223 11 -59 27 -118 35 -131 30 -46 98 -58
150 -26 55 34 59 59 30 232 -45 275 -51 351 -51 671 0 168 3 310 7 313 4 4 30
-13 58 -38 105 -95 275 -186 362 -195 44 -4 50 -2 83 31 29 29 35 42 35 76 0
55 -36 92 -126 129 -240 98 -411 312 -461 576 -22 119 -13 541 15 677 86 413
321 758 671 984 155 100 182 110 1206 440 168 54 330 113 369 133 125 67 253
205 311 335 53 122 74 299 41 349 -28 43 -90 59 -143 38z"/>
<path d="M3284 3921 c-73 -45 -67 -150 12 -194 25 -14 958 -237 992 -237 90 1
136 112 75 180 -26 28 -55 37 -516 150 -269 66 -498 120 -510 120 -12 0 -36
-9 -53 -19z"/>
<path d="M2403 3570 c-17 -10 -37 -28 -43 -39 -5 -11 -33 -131 -60 -267 -72
-351 -102 -451 -207 -682 -54 -118 -55 -125 -44 -163 28 -92 150 -107 201 -24
38 62 119 256 164 392 39 120 156 641 156 695 0 34 -29 75 -64 92 -44 21 -64
20 -103 -4z"/>
<path d="M2342 1924 c-25 -17 -52 -64 -52 -91 0 -29 94 -225 149 -310 58 -91
59 -100 41 -284 -23 -226 -59 -354 -205 -728 -83 -215 -87 -226 -76 -263 21
-69 102 -98 167 -59 26 16 40 44 100 197 l69 178 10 -159 c6 -91 16 -170 23
-182 37 -67 146 -69 189 -4 21 31 21 22 -8 574 -12 230 -19 420 -16 423 2 3
29 -9 58 -27 70 -41 180 -85 282 -112 80 -21 98 -22 670 -22 l589 0 29 33 c46
51 34 141 -23 170 -17 8 -179 12 -588 15 -546 3 -568 4 -645 25 -168 47 -323
148 -432 282 -29 37 -81 123 -117 197 -36 72 -75 138 -88 147 -29 20 -97 21
-126 0z"/>
</g>
</svg>
