<?xml version="1.0" standalone="no"?>
<!DOCTYPE svg PUBLIC "-//W3C//DTD SVG 20010904//EN"
 "http://www.w3.org/TR/2001/REC-SVG-20010904/DTD/svg10.dtd">
<svg version="1.0" xmlns="http://www.w3.org/2000/svg"
 width="512.000000pt" height="512.000000pt" viewBox="0 0 512.000000 512.000000"
 preserveAspectRatio="xMidYMid meet">

<g transform="translate(0.000000,512.000000) scale(0.100000,-0.100000)"
fill="#000000" stroke="none">
<path d="M1465 5100 c-54 -28 -78 -63 -83 -124 -3 -46 29 -145 338 -1033 l342
-983 -60 -70 c-115 -132 -232 -316 -232 -362 0 -32 25 -64 54 -72 45 -11 71 9
114 86 51 94 142 215 221 295 57 59 66 75 62 113 -1 8 -157 461 -347 1005
-189 545 -344 996 -344 1003 0 9 152 12 680 12 537 0 680 -3 680 -12 0 -7 11
-85 25 -173 22 -144 27 -162 50 -182 33 -29 57 -29 91 0 33 28 33 37 4 230
-26 175 -41 219 -88 255 l-35 27 -716 3 c-703 2 -717 2 -756 -18z"/>
<path d="M3016 4369 c-17 -14 -26 -30 -26 -50 0 -16 39 -285 86 -597 105 -695
105 -689 25 -887 -29 -72 -54 -131 -56 -133 -2 -2 -26 6 -54 18 -35 15 -72 45
-119 96 -78 83 -105 92 -147 49 -35 -34 -31 -63 14 -127 45 -62 124 -127 197
-160 l50 -23 -315 -760 c-330 -797 -337 -820 -311 -900 28 -84 53 -100 458
-288 l377 -175 150 -22 c83 -11 162 -26 178 -32 86 -34 90 -170 6 -214 -22
-11 -78 -14 -271 -14 -228 0 -249 2 -333 25 -50 14 -98 25 -108 25 -28 0 -67
-45 -67 -78 0 -45 34 -67 150 -96 100 -25 118 -26 356 -26 285 0 323 6 393 67
142 121 113 362 -52 442 -25 12 -109 31 -206 46 l-164 26 -346 161 c-190 88
-354 170 -363 181 -10 10 -18 29 -18 42 0 12 173 440 383 951 211 511 392 952
402 979 11 31 19 91 22 160 4 100 -3 161 -81 680 -47 314 -88 580 -91 593 -8
32 -41 62 -69 62 -13 0 -35 -9 -50 -21z"/>
<path d="M1675 2250 c-29 -32 -46 -131 -52 -300 -4 -112 3 -307 27 -710 l32
-555 -58 -125 c-58 -123 -59 -126 -59 -215 0 -78 4 -97 28 -147 97 -199 325
-249 657 -144 48 16 121 30 170 33 70 5 88 10 107 29 31 31 30 74 -2 104 -23
22 -30 23 -117 17 -60 -4 -128 -17 -192 -37 -287 -88 -448 -60 -496 86 -19 56
-7 109 49 231 29 63 54 133 57 160 3 26 -8 281 -25 565 -34 571 -37 744 -16
863 8 44 15 90 15 103 0 55 -87 84 -125 42z"/>
<path d="M2000 750 c-43 -43 -13 -161 56 -219 65 -53 156 -66 192 -28 45 48
11 127 -54 127 -31 0 -64 33 -64 64 0 13 -9 35 -21 50 -26 33 -79 36 -109 6z"/>
</g>
</svg>
