<?xml version="1.0" standalone="no"?>
<!DOCTYPE svg PUBLIC "-//W3C//DTD SVG 20010904//EN"
 "http://www.w3.org/TR/2001/REC-SVG-20010904/DTD/svg10.dtd">
<svg version="1.0" xmlns="http://www.w3.org/2000/svg"
 width="512.000000pt" height="512.000000pt" viewBox="0 0 512.000000 512.000000"
 preserveAspectRatio="xMidYMid meet">

<g transform="translate(0.000000,512.000000) scale(0.100000,-0.100000)"
fill="#000000" stroke="none">
<path d="M1907 5098 c-9 -7 -35 -67 -58 -133 -174 -501 -345 -685 -759 -815
-137 -43 -160 -59 -160 -112 0 -36 32 -68 67 -68 36 0 258 73 350 115 289 133
472 356 618 754 l43 116 554 3 554 2 23 -72 c85 -263 210 -480 358 -618 129
-121 252 -187 504 -270 485 -160 731 -386 844 -775 57 -198 62 -258 80 -1070
l15 -640 25 -22 c34 -30 70 -29 102 3 l25 25 -6 197 c-3 108 -11 402 -16 652
-6 250 -15 505 -21 565 -48 486 -242 820 -603 1033 -126 75 -221 116 -413 180
-295 99 -436 195 -565 386 -59 86 -141 262 -193 416 -25 74 -53 141 -62 148
-13 9 -160 12 -653 12 -493 0 -640 -3 -653 -12z"/>
<path d="M578 3905 c-296 -210 -465 -533 -507 -970 -10 -97 -21 -552 -62
-2374 -10 -482 -10 -495 9 -520 l19 -26 385 -3 384 -2 21 22 c17 19 46 153
164 761 79 405 148 737 152 737 5 0 7 -196 4 -457 -5 -489 -17 -650 -62 -877
-25 -126 -23 -156 14 -175 28 -15 2894 -15 2922 0 37 19 39 49 14 174 -35 170
-55 388 -63 687 -8 282 -4 648 7 648 3 0 71 -332 150 -737 117 -603 147 -742
164 -761 l21 -22 384 2 385 3 19 25 c18 25 18 42 7 595 -12 644 -9 617 -87
623 -35 3 -43 -1 -58 -23 -15 -24 -16 -57 -10 -388 3 -199 9 -435 12 -525 l7
-162 -284 2 -284 3 -187 955 c-103 525 -187 970 -187 987 -1 48 44 275 89 448
34 132 79 269 135 416 16 40 16 49 4 74 -18 37 -59 53 -94 37 -65 -30 -201
-461 -269 -852 -66 -379 -96 -1094 -66 -1565 11 -163 44 -458 56 -488 6 -16
-42 -17 -620 -17 l-626 0 -2 1214 c-3 1178 -4 1215 -22 1235 -13 14 -31 21
-56 21 -25 0 -43 -7 -56 -21 -18 -20 -19 -57 -22 -1235 l-2 -1214 -623 0 -623
0 17 113 c32 213 41 353 46 724 10 706 -37 1177 -162 1643 -51 190 -130 400
-161 428 -42 37 -92 26 -113 -26 -11 -25 -8 -38 17 -103 81 -203 174 -548 204
-758 l12 -79 -189 -971 -189 -971 -284 0 -284 0 6 152 c3 84 8 284 11 443 21
1134 47 2084 60 2200 42 378 178 635 435 823 41 30 81 62 88 70 19 25 14 66
-11 90 -37 35 -73 28 -159 -33z"/>
<path d="M2018 3869 c-14 -6 -30 -18 -35 -27 -4 -9 -10 -215 -13 -457 -5 -377
-8 -449 -23 -500 -44 -152 -166 -332 -305 -450 -81 -69 -96 -97 -76 -143 14
-34 47 -48 89 -38 13 3 75 57 138 119 157 156 239 285 294 464 l27 88 4 439
c2 242 1 450 -2 462 -5 19 -54 57 -68 53 -2 0 -15 -5 -30 -10z"/>
<path d="M3024 3855 l-25 -25 4 -458 c4 -521 1 -501 92 -687 38 -78 76 -138
132 -205 99 -119 226 -230 263 -230 36 0 70 38 70 79 0 26 -10 41 -52 79 -191
169 -293 320 -338 497 -18 72 -20 111 -20 491 0 281 -4 421 -11 437 -11 25
-47 47 -75 47 -8 0 -26 -11 -40 -25z"/>
<path d="M1722 925 c-34 -15 -48 -48 -38 -89 3 -14 26 -37 55 -56 92 -58 159
-155 176 -253 7 -37 44 -77 71 -77 28 0 63 24 74 51 23 56 -41 215 -122 305
-92 99 -165 140 -216 119z"/>
<path d="M3284 896 c-103 -70 -185 -186 -217 -310 -11 -41 -13 -65 -6 -85 10
-27 44 -51 74 -51 29 0 64 46 80 105 23 84 74 157 148 211 34 25 65 51 69 58
14 21 8 66 -12 86 -30 30 -77 25 -136 -14z"/>
</g>
</svg>
