<svg xmlns="http://www.w3.org/2000/svg" width="512" height="512" viewBox="0 0 512 512" version="1.1"><path d="" stroke="none" fill="#080404" fill-rule="evenodd"/><path d="M 136.735 30.087 C 75.070 36.607, 23.063 83.842, 10.478 144.760 C 3.815 177.008, 8.867 216.112, 24.460 253 C 46.457 305.036, 92.015 361.001, 155.500 413.973 C 190.483 443.163, 248.402 483, 255.859 483 C 261.972 483, 306.887 453.154, 340 427.087 C 424.539 360.537, 478.186 291.623, 497.363 224.941 C 504.051 201.686, 506.139 171.903, 502.583 150.500 C 492.596 90.406, 444.901 42.494, 384 31.379 C 369.833 28.793, 346.734 29.004, 332.237 31.853 C 306.015 37.004, 280.930 49.319, 262.804 65.939 C 256.108 72.078, 256.108 72.078, 246.804 64.273 C 215.241 37.793, 176.792 25.852, 136.735 30.087 M 131.500 55.442 C 93.368 62.789, 61.630 86.570, 44.677 120.500 C 35.045 139.777, 31.480 156.973, 32.343 180 C 33.322 206.131, 39.486 228.650, 53.143 255.984 C 70.479 290.681, 91.751 318.917, 127.420 354.575 C 147.488 374.638, 162.867 388.347, 185.420 406.278 C 211.719 427.188, 254.159 456.537, 256.691 455.565 C 257.385 455.299, 264.771 450.528, 273.104 444.963 C 381.761 372.405, 455.008 289.020, 474.536 215.652 C 479.567 196.748, 481.265 174.240, 478.928 157.434 C 475.357 131.760, 461.736 105.402, 442.691 87.312 C 419.918 65.680, 390.575 54, 359 54 C 325.311 54, 297.135 66.021, 271.952 91.137 C 266.086 96.988, 260.283 102.093, 259.056 102.482 C 254.016 104.082, 250.696 102.237, 240.978 92.438 C 222.177 73.479, 205.551 63.645, 181.870 57.478 C 173.085 55.190, 168.978 54.725, 155 54.435 C 143.938 54.206, 136.193 54.538, 131.500 55.442 M 245.314 146.950 C 243.561 148.019, 241.634 149.815, 241.031 150.941 C 240.429 152.068, 234.100 171.104, 226.968 193.245 C 219.836 215.385, 213.735 234.175, 213.410 235 C 213.045 235.926, 209.812 230.516, 204.959 220.862 C 200.320 211.631, 196 204.358, 194.415 203.112 C 190.908 200.353, 184.198 200.270, 180.801 202.942 C 179.443 204.010, 173.420 211.648, 167.416 219.916 C 156.500 234.948, 156.500 234.948, 133 234.980 C 120.075 234.997, 107.841 235.472, 105.814 236.035 C 95.284 238.960, 93.714 253.789, 103.446 258.407 C 106.555 259.883, 110.578 260.049, 136.911 259.792 C 171.621 259.453, 167.428 260.863, 178.684 245.750 C 182.268 240.938, 185.379 237, 185.596 237 C 185.813 237, 190.500 246.011, 196.013 257.025 C 206.700 278.380, 208.824 280.993, 215.500 280.993 C 218.932 280.993, 224.421 277.966, 225.820 275.304 C 226.341 274.312, 231.820 257.750, 237.996 238.500 C 244.172 219.250, 249.534 202.930, 249.912 202.233 C 250.289 201.536, 256.819 224.036, 264.422 252.233 C 272.025 280.430, 279.030 305.332, 279.988 307.572 C 281.834 311.887, 286.555 315, 291.253 315 C 297.393 315, 299.817 311.722, 315.500 282.220 C 330.500 254.002, 330.500 254.002, 367.849 254.001 C 400.344 254, 405.645 253.788, 408.643 252.365 C 412.832 250.377, 415 246.484, 415 240.950 C 415 235.302, 410.313 230.462, 403.940 229.530 C 401.498 229.173, 381.500 229.020, 359.500 229.190 C 320.251 229.494, 319.444 229.541, 316.500 231.676 C 314.476 233.144, 310.457 239.591, 304.147 251.490 C 299.002 261.190, 294.649 268.983, 294.474 268.807 C 294.298 268.631, 287.102 242.390, 278.484 210.494 C 269.865 178.597, 262.146 151.450, 261.329 150.166 C 259.702 147.608, 254.368 144.998, 250.782 145.004 C 249.527 145.006, 247.066 145.882, 245.314 146.950" stroke="none" fill="#040404" fill-rule="evenodd"/></svg>