<?xml version="1.0" standalone="no"?>
<!DOCTYPE svg PUBLIC "-//W3C//DTD SVG 20010904//EN"
 "http://www.w3.org/TR/2001/REC-SVG-20010904/DTD/svg10.dtd">
<svg version="1.0" xmlns="http://www.w3.org/2000/svg"
 width="512.000000pt" height="512.000000pt" viewBox="0 0 512.000000 512.000000"
 preserveAspectRatio="xMidYMid meet">

<g transform="translate(0.000000,512.000000) scale(0.100000,-0.100000)"
fill="#000000" stroke="none">
<path d="M1863 4869 c-22 -11 -52 -37 -66 -57 -14 -20 -51 -116 -82 -214 -34
-109 -67 -191 -84 -215 -51 -71 -92 -84 -650 -209 -325 -72 -533 -124 -566
-139 -106 -51 -190 -149 -226 -267 -11 -33 -22 -106 -25 -162 -6 -95 -5 -102
15 -120 12 -11 35 -19 52 -19 52 0 67 26 83 150 21 159 62 230 159 277 34 16
231 65 565 140 308 69 535 125 567 140 71 32 136 93 172 163 17 32 54 130 83
218 29 88 57 166 63 173 7 9 147 12 637 12 490 0 630 -3 637 -12 6 -7 23 -50
37 -96 29 -87 51 -112 96 -112 33 0 70 38 70 71 0 38 -55 193 -81 228 -13 17
-41 40 -64 51 -40 19 -62 20 -696 20 -640 0 -655 0 -696 -21z"/>
<path d="M3443 4348 c-30 -14 -46 -58 -34 -90 11 -30 86 -82 150 -102 25 -8
268 -65 540 -126 272 -61 510 -118 529 -126 77 -32 138 -102 162 -183 5 -17
48 -396 96 -843 97 -908 97 -892 36 -1022 -21 -45 -176 -256 -479 -652 l-448
-585 -28 88 c-37 117 -57 237 -57 339 0 93 -11 127 -47 143 -34 16 -47 14 -77
-10 -25 -20 -26 -24 -26 -123 0 -140 20 -248 86 -459 43 -141 52 -181 44 -197
-11 -20 -22 -20 -1330 -20 -1308 0 -1319 0 -1330 20 -8 16 1 56 44 197 76 242
89 329 83 523 -4 141 -13 202 -101 680 -53 289 -98 535 -101 547 -5 20 -3 21
33 10 26 -9 192 -12 572 -12 l535 0 53 24 c112 51 205 198 168 269 -24 47 -66
55 -109 22 -14 -11 -28 -34 -32 -51 -10 -43 -60 -97 -103 -109 -51 -14 -950
-13 -1028 1 -121 22 -231 105 -280 213 -14 30 -50 176 -85 337 -36 171 -67
291 -76 301 -34 38 -108 18 -126 -33 -3 -9 23 -149 58 -312 73 -340 91 -389
188 -494 l63 -68 22 -127 22 -127 -21 -53 c-29 -76 -81 -165 -128 -222 -61
-73 -53 -133 20 -151 33 -8 75 26 136 108 24 33 43 56 43 52 0 -3 28 -156 62
-338 88 -476 90 -629 11 -880 l-28 -88 -448 585 c-302 396 -458 607 -479 652
-58 125 -58 144 6 744 32 294 60 554 63 577 5 35 2 45 -20 67 -33 33 -76 34
-105 3 -19 -21 -26 -70 -82 -583 -33 -309 -60 -582 -60 -608 0 -76 29 -196 66
-272 24 -51 176 -258 518 -704 440 -576 484 -637 490 -679 8 -57 33 -100 82
-137 l37 -29 1367 0 1367 0 37 29 c49 37 74 80 82 137 6 42 49 103 488 675
264 347 493 652 508 679 38 72 68 179 74 265 7 89 -156 1635 -182 1738 -31
117 -120 225 -231 277 -33 16 -247 69 -584 145 -461 104 -538 124 -579 150
-50 32 -63 35 -97 18z"/>
<path d="M1786 4070 c-172 -25 -288 -46 -303 -55 -46 -31 -39 -106 12 -125 18
-7 108 2 325 31 183 25 314 39 335 35 25 -5 58 -29 115 -81 61 -58 86 -75 109
-75 41 0 72 28 73 68 1 29 -10 44 -77 112 -92 92 -148 121 -245 126 -39 2
-177 -13 -344 -36z"/>
<path d="M2913 4096 c-61 -20 -100 -47 -177 -125 -59 -59 -69 -75 -68 -103 1
-40 32 -68 73 -68 23 0 48 17 109 75 57 52 90 76 115 81 21 4 152 -10 335 -35
217 -29 307 -38 325 -31 51 19 58 94 12 125 -24 15 -574 96 -646 94 -20 0 -55
-6 -78 -13z"/>
<path d="M4317 3352 c-9 -10 -40 -130 -76 -301 -35 -163 -71 -307 -85 -337
-49 -106 -162 -190 -286 -214 -71 -13 -973 -13 -1022 0 -43 12 -93 66 -103
109 -4 17 -18 40 -32 51 -43 33 -85 25 -109 -22 -37 -71 56 -218 168 -269 l53
-24 535 0 c380 0 546 3 572 12 36 11 38 10 33 -10 -20 -86 -155 -858 -155
-883 0 -23 8 -39 26 -53 34 -27 57 -26 89 2 25 21 30 42 71 262 24 132 44 244
44 250 0 5 15 -13 34 -40 18 -28 52 -67 76 -88 34 -32 47 -37 68 -32 74 18 83
78 21 151 -47 57 -99 146 -128 222 l-21 53 22 127 22 126 62 69 c98 108 117
157 185 475 64 302 69 340 41 365 -25 22 -85 22 -105 -1z"/>
<path d="M1530 2738 c-11 -12 -20 -35 -20 -50 0 -36 40 -78 75 -78 33 0 75 41
75 73 0 13 -9 36 -21 51 -27 34 -79 36 -109 4z"/>
<path d="M3481 2734 c-12 -15 -21 -38 -21 -51 0 -32 42 -73 75 -73 35 0 75 42
75 78 0 67 -88 99 -129 46z"/>
<path d="M2513 756 c-26 -22 -27 -29 -31 -122 -4 -121 10 -174 51 -188 17 -6
37 -6 55 0 40 14 54 67 50 188 -4 93 -5 100 -31 122 -16 13 -37 24 -47 24 -10
0 -31 -11 -47 -24z"/>
</g>
</svg>
