<svg xmlns="http://www.w3.org/2000/svg" width="512" height="512" viewBox="0 0 512 512" version="1.1"><path d="" stroke="none" fill="#080404" fill-rule="evenodd"/><path d="M 250.073 2.635 C 248.144 5.087, 248 6.566, 248 23.953 C 248 44.551, 246.945 50.536, 242.350 55.996 C 238.688 60.348, 234.320 62.312, 219.183 66.413 C 179.747 77.098, 158.568 78.374, 143.377 70.980 C 132.654 65.761, 129.199 60.873, 119.004 36.500 C 112.920 21.957, 103.987 5.135, 101.171 2.920 C 99.829 1.864, 97.646 1, 96.320 1 C 93.205 1, 89 5.218, 89 8.342 C 89 9.680, 92.142 16.967, 95.982 24.535 C 103.503 39.357, 109.826 54.731, 113.652 67.500 C 116.286 76.289, 121.413 100.334, 122.500 109 C 122.880 112.025, 123.797 115.457, 124.538 116.627 C 127.404 121.153, 135.602 120.363, 137.891 115.341 C 138.799 113.347, 138.611 110.156, 136.995 100.158 C 135.870 93.196, 134.694 86.674, 134.380 85.664 C 133.879 84.050, 134.075 83.970, 136.003 85.002 C 153.361 94.291, 179.425 93.476, 221 82.345 C 237.177 78.014, 247.295 73.539, 251.900 68.682 C 255.301 65.095, 255.301 65.095, 259.776 69.034 C 266.053 74.559, 272.618 77.394, 289.871 82.031 C 333.557 93.769, 352.758 94.542, 376.142 85.504 C 377.650 84.921, 377.667 85.423, 376.354 91.685 C 369.021 126.667, 368.130 178.749, 374.126 222 C 376.929 242.226, 384.688 279.810, 387.655 287.544 C 388.143 288.814, 371.324 289, 256.040 289 C 130.618 289, 123.893 288.911, 124.410 287.250 C 128.495 274.128, 135.896 237.012, 138.419 217 C 142.140 187.488, 143.262 148.340, 140.537 143.072 C 137.972 138.112, 131.436 137.359, 128.073 141.635 C 126.158 144.069, 126 145.583, 126 161.490 C 126 205.967, 118.627 252.800, 104.509 298 C 99.034 315.525, 95.668 331.124, 93.611 348.500 C 89.403 384.036, 88.241 446.148, 91.366 468.500 C 93.940 486.910, 99.364 508.019, 102.095 510.257 C 104.099 511.900, 108.515 511.998, 169.762 511.757 C 235.284 511.500, 235.284 511.500, 237.128 509 C 238.735 506.821, 239.295 501.306, 241.486 466.059 C 242.869 443.816, 244 419.178, 244 411.309 C 244 397, 244 397, 256 397 C 268 397, 268 397, 268 411.527 C 268 430.145, 272.724 505.616, 274.044 508.081 C 274.595 509.111, 275.906 510.414, 276.957 510.977 C 279.487 512.331, 406.403 512.390, 408.929 511.038 C 413.722 508.473, 420.003 479.514, 422.019 450.680 C 423.087 435.404, 421.890 382.484, 420.388 378.570 C 419.698 376.771, 414.979 374, 412.605 374 C 411.784 374, 409.849 375.086, 408.306 376.414 C 405.500 378.829, 405.500 378.829, 405.785 395.164 C 405.942 404.149, 406.315 412.738, 406.615 414.250 C 407.159 417, 407.159 417, 345.579 417 C 284 417, 284 417, 284.018 405.250 C 284.036 393.500, 284.036 393.500, 291.367 391.181 C 295.400 389.905, 300.074 388.025, 301.754 387.003 C 305.639 384.641, 306.866 379.970, 304.536 376.415 C 301.765 372.185, 298.783 371.722, 291.637 374.412 C 267.948 383.329, 249.451 383.769, 225.580 375.984 C 212.384 371.680, 210.077 371.816, 207.133 377.069 C 203.793 383.028, 207.920 387.336, 220.741 391.275 C 227.981 393.500, 227.981 393.500, 227.991 405.250 C 228 417, 228 417, 166.704 417 C 105.408 417, 105.408 417, 105.723 407.250 C 107.195 361.758, 110.724 332.055, 117.117 311.355 C 119.080 305, 119.080 305, 255.960 305 C 392.839 305, 392.839 305, 394.398 309.750 C 396.650 316.617, 399.759 330.331, 401.028 339 C 403.028 352.670, 404.465 355, 410.895 355 C 415.007 355, 418 351.624, 418 346.986 C 418 338.461, 413.375 317.665, 406.549 295.500 C 398.310 268.747, 390.995 233.197, 387.826 204.500 C 385.759 185.791, 386.045 133.903, 388.308 117 C 393.315 79.595, 400.867 54.395, 416.018 24.535 C 419.858 16.967, 423 9.680, 423 8.342 C 423 5.218, 418.795 1, 415.680 1 C 414.354 1, 412.171 1.864, 410.829 2.920 C 408.013 5.135, 399.080 21.957, 392.996 36.500 C 383.105 60.147, 379.230 65.823, 369.671 70.667 C 354.999 78.101, 336.727 77.522, 301.489 68.504 C 279.368 62.843, 273.842 60.723, 270.103 56.465 C 265.075 50.738, 264 45.012, 264 23.953 C 264 6.566, 263.856 5.087, 261.927 2.635 C 259 -1.087, 253 -1.087, 250.073 2.635 M 250.861 111.908 C 248.711 113.645, 248.455 114.783, 248 124.629 C 247.500 135.441, 247.500 135.441, 231 139.258 C 206.316 144.968, 202.461 144.075, 196.872 131.357 C 192.425 121.238, 187.502 118.728, 181.840 123.692 C 178.518 126.604, 178.752 129.677, 182.985 138.708 C 192.045 158.044, 203.786 161.919, 232.661 155.106 C 239.899 153.397, 246.311 152, 246.911 152 C 248.167 152, 248.500 191.573, 247.250 192.345 C 246.838 192.600, 240.425 194.059, 233 195.589 C 216.683 198.951, 214.970 198.541, 211 190.328 C 207.558 183.206, 205.316 181, 201.519 181 C 197.620 181, 194 184.532, 194 188.336 C 194 192.149, 199.140 202.946, 202.597 206.397 C 209.717 213.503, 220.139 214.957, 236.289 211.099 C 241.123 209.945, 245.744 209, 246.559 209 C 247.829 209, 248.003 211.902, 247.771 229.227 C 247.500 249.454, 247.500 249.454, 237.500 251.732 C 223.728 254.869, 221.756 254.405, 218.267 247.208 C 214.201 238.820, 208.887 236.984, 203.966 242.267 C 201.461 244.956, 201.485 247.634, 204.071 253.666 C 207.079 260.682, 210.346 264.505, 215.446 266.974 C 221.686 269.995, 228.182 269.898, 243.581 266.555 C 256.663 263.715, 256.663 263.715, 269.081 266.497 C 292.679 271.784, 301.399 269.316, 307.924 255.504 C 311.756 247.395, 311.763 245.609, 307.975 241.821 C 305.526 239.372, 304.431 238.926, 302.230 239.478 C 298.451 240.427, 297.209 241.653, 294.386 247.225 C 290.805 254.292, 289.263 254.687, 276.347 251.851 C 265.500 249.469, 265.500 249.469, 265.229 229.235 C 265.001 212.153, 265.183 209, 266.400 209 C 267.193 209, 271.815 209.955, 276.671 211.123 C 292.795 214.999, 303.559 213.466, 310.232 206.344 C 313.585 202.765, 319 191.818, 319 188.619 C 319 184.796, 315.342 180.998, 311.677 181.015 C 307.164 181.037, 306.143 181.958, 302.099 189.653 C 297.252 198.875, 295.835 199.216, 278.481 195.341 C 265.500 192.442, 265.500 192.442, 265.229 172.221 C 265.072 160.486, 265.342 152, 265.872 152 C 266.375 152, 272.571 153.294, 279.643 154.875 C 297.184 158.797, 299.739 159.100, 306.283 158.035 C 313.507 156.860, 318.406 154.527, 322.728 150.206 C 326.571 146.362, 333 133.152, 333 129.098 C 333 123.520, 327.830 119.974, 322.599 121.963 C 320.811 122.642, 318.865 125.302, 316.030 130.941 C 309.390 144.147, 306.963 144.758, 282.497 139.372 C 265 135.520, 265 135.520, 265 127.228 C 265 115.018, 262.284 110, 255.677 110 C 254.326 110, 252.159 110.859, 250.861 111.908 M 105.403 445.750 C 106.242 461.114, 108.232 475.981, 111.067 488.055 C 113.167 497, 113.167 497, 168.583 497 C 224 497, 224 497, 224 494.609 C 224 491.110, 226.890 443.320, 227.438 437.750 C 227.906 433, 227.906 433, 166.307 433 C 104.708 433, 104.708 433, 105.403 445.750 M 284.510 438.250 C 285.068 443.811, 288 491.424, 288 494.934 C 288 496.997, 288.075 497, 343.417 497 C 398.833 497, 398.833 497, 400.835 488.250 C 404.243 473.354, 406.968 451.006, 406.991 437.750 C 407 433, 407 433, 345.491 433 C 283.983 433, 283.983 433, 284.510 438.250" stroke="none" fill="#040404" fill-rule="evenodd"/></svg>