<?xml version="1.0" standalone="no"?>
<!DOCTYPE svg PUBLIC "-//W3C//DTD SVG 20010904//EN"
 "http://www.w3.org/TR/2001/REC-SVG-20010904/DTD/svg10.dtd">
<svg version="1.0" xmlns="http://www.w3.org/2000/svg"
 width="512.000000pt" height="512.000000pt" viewBox="0 0 512.000000 512.000000"
 preserveAspectRatio="xMidYMid meet">

<g transform="translate(0.000000,512.000000) scale(0.100000,-0.100000)"
fill="#000000" stroke="none">
<path d="M1401 5104 c-81 -22 -147 -62 -205 -125 -66 -71 -73 -86 -191 -421
-107 -303 -109 -317 -51 -344 29 -14 37 -15 62 -3 27 13 38 39 135 311 108
302 128 343 194 394 67 51 97 54 509 54 l381 0 52 -25 c39 -18 60 -36 82 -71
43 -67 46 -108 17 -268 -25 -141 -38 -170 -89 -198 -19 -10 -463 -88 -503 -88
-51 0 -59 109 -14 185 35 60 37 74 9 109 -29 37 -81 36 -116 -1 -54 -59 -68
-101 -68 -203 0 -86 3 -100 29 -147 l28 -51 -22 -199 c-110 -1004 -265 -1750
-437 -2101 -41 -83 -44 -95 -33 -121 11 -27 46 -51 74 -51 26 0 62 39 90 95
l28 57 51 -6 c331 -39 1294 -36 1656 5 92 11 287 60 323 82 28 18 38 59 22 95
-19 46 -50 50 -153 18 -47 -15 -129 -33 -181 -41 -240 -35 -1061 -49 -1455
-25 -110 7 -201 13 -202 14 -1 1 13 51 32 111 132 417 233 970 324 1768 16
137 31 250 33 252 2 2 105 21 228 41 l225 37 95 -58 c106 -64 145 -77 194 -64
52 14 81 43 136 133 42 71 50 91 50 133 0 88 -27 113 -201 185 -4 2 0 43 8 93
12 71 13 102 5 148 -23 123 -92 216 -200 269 l-67 33 -415 2 c-340 2 -425 0
-469 -13z m1149 -700 c22 -9 40 -18 40 -20 0 -3 -59 -104 -67 -114 -2 -2 -23
7 -47 20 l-44 23 36 54 c20 29 37 53 39 53 1 0 21 -7 43 -16z"/>
<path d="M836 4051 c-20 -22 -776 -2147 -812 -2281 -41 -154 -26 -300 46 -444
76 -152 207 -266 368 -319 67 -22 112 -29 240 -37 143 -8 171 -13 312 -55 303
-89 416 -116 443 -106 44 17 62 77 34 115 -8 11 -85 37 -222 75 -116 32 -250
70 -299 85 -68 20 -127 29 -245 36 -175 11 -210 18 -295 63 -163 87 -266 272
-253 457 4 67 50 202 406 1208 221 624 401 1144 401 1156 0 54 -88 87 -124 47z"/>
<path d="M3591 2141 c-31 -31 -28 -84 5 -110 22 -17 41 -21 110 -21 128 0 221
-25 361 -96 244 -124 292 -134 644 -134 l259 0 0 -815 0 -815 -178 0 -178 0
-50 31 c-150 96 -284 266 -334 424 -27 85 -96 114 -139 59 -28 -36 -27 -50 14
-150 44 -111 108 -212 185 -297 l62 -67 -259 0 -258 1 -135 111 c-353 290
-624 410 -1060 468 -298 39 -638 95 -853 139 -108 23 -136 18 -156 -26 -16
-35 -14 -49 12 -77 19 -22 46 -30 205 -61 223 -43 484 -85 740 -120 463 -62
670 -155 1062 -475 l134 -110 644 0 643 0 24 25 25 24 0 914 c0 886 -1 916
-19 938 l-19 24 -344 6 c-396 6 -379 3 -583 108 -167 86 -262 113 -421 119
-114 4 -123 3 -143 -17z"/>
</g>
</svg>
